; NON-PLATED HOLES START AT T1
; THROUGH (PLATED) HOLES START AT T100
M48
INCH
T1C0.086614
T100C0.038000
T101C0.100000
%
T1
X000865Y038512
X000864Y000863
X038518Y000857
X038516Y038520
T100
X037306Y027591
X025310Y006594
X014299Y022594
X018300Y018592
X027304Y034593
X004314Y037610
X024307Y001587
X037303Y013599
X035302Y029591
X029298Y010597
X032307Y004592
X037301Y005592
X033294Y019592
X020305Y015598
X008303Y013599
X035306Y011599
X034310Y006594
X033304Y007594
X021301Y012599
X023299Y022594
X021302Y032593
X007309Y036610
X004308Y035609
X003307Y004592
X013314Y037610
X033307Y001587
X006306Y011599
X004304Y007594
X030303Y020595
X019307Y008594
X007303Y025589
X010307Y008594
X030301Y012599
X037300Y028591
X030302Y032593
X013308Y035609
X009305Y015598
X034296Y035594
X012307Y004592
X005308Y031593
X003306Y027591
X008300Y028591
X025297Y021595
X022297Y026589
X027303Y009597
X028307Y008594
X006309Y002592
X019303Y020595
X016303Y025589
X024299Y016598
X018305Y015598
X022300Y018592
X003301Y005592
X019301Y012599
X014308Y031593
X012306Y027591
X034297Y021595
X031297Y026589
X024309Y036592
X036303Y009597
X033298Y010597
X037307Y008594
X015309Y002592
X028303Y020595
X033299Y016598
X012303Y013599
X005297Y021595
X019302Y029591
X010302Y029591
X011309Y036610
X031300Y018592
X004298Y010597
X012301Y005592
X018310Y006594
X010306Y011599
X024309Y002592
X021303Y013599
X028302Y029591
X020309Y036610
X026294Y019592
X028306Y011599
X027310Y006594
X026304Y007594
X016299Y022594
X014302Y032593
X012300Y028591
X006314Y037610
X026307Y001587
X032307Y008594
X020303Y025589
X037302Y029591
X034307Y004592
X035294Y019592
X022305Y015598
X002303Y009597
X003307Y008594
X037306Y011599
X035304Y007594
X023301Y012599
X025299Y022594
X023302Y032593
X009309Y036610
X006308Y035609
X021300Y028591
X005307Y004592
X035307Y001587
X032303Y020595
X031305Y015598
X011303Y009597
X009303Y025589
X012307Y008594
X003303Y020595
X032301Y012599
X036296Y035594
X007308Y031593
X005306Y027591
X027297Y021595
X024297Y026589
X032302Y029591
X029303Y009597
X026298Y010597
X008309Y002592
X018303Y025589
X026299Y016598
X005303Y013599
X031310Y006594
X003302Y029591
X024300Y018592
X005301Y005592
X016308Y031593
X010314Y037610
X014306Y027591
X036297Y021595
X033297Y026589
X003306Y011599
X002310Y006594
X035298Y010597
X017309Y002592
X035299Y016598
X014303Y013599
X012302Y029591
X013309Y036610
X010308Y035609
X033300Y018592
X006298Y010597
X019294Y019592
X014301Y005592
X010294Y019592
X009299Y022594
X012306Y011599
X010304Y007594
X019307Y001587
X010307Y001587
X023303Y013599
X028294Y019592
X029310Y006594
X028304Y007594
X018299Y022594
X016302Y032593
X014300Y028591
X034297Y034594
X008314Y037610
X033303Y009597
X028307Y001587
X034307Y008594
X025303Y020595
X022303Y025589
X002297Y021595
X036307Y004592
X024305Y015598
X004303Y009597
X005307Y008594
X037304Y007594
X025301Y012599
X020308Y031593
X025302Y032593
X008308Y035609
X023300Y028591
X007307Y004592
X037307Y001587
X021309Y002592
X034303Y020595
X031303Y025589
X017297Y026589
X011297Y021595
X033305Y015598
X013303Y009597
X019299Y016598
X010298Y010597
X010299Y016598
X034301Y012599
X017300Y018592
X026304Y034593
X009308Y031593
X030309Y002592
X007306Y027591
X029297Y021595
X026297Y026589
X019302Y034608
X034302Y029591
X010302Y034608
X028298Y010597
X028299Y016598
X032294Y019592
X007303Y013599
X033310Y006594
X025304Y035592
X005302Y029591
X022299Y022594
X006309Y036610
X026300Y018592
X007301Y005592
X018308Y031593
X003294Y019592
X012314Y037610
X016306Y027591
X032307Y001587
X005306Y011599
X004310Y006594
X003304Y007594
X037298Y010597
X019309Y002592
X003307Y001587
X016303Y013599
X031299Y022594
X015309Y036610
X012308Y035609
X035300Y018592
X011307Y004592
X016301Y005592
X021314Y037610
X009302Y032593
X014306Y011599
X012304Y007594
X007300Y028591
X015303Y025589
X012307Y001587
X029307Y004592
X021308Y035609
X017305Y015598
X020307Y004592
X018301Y012599
X018302Y032593
X011306Y027591
X016300Y028591
X030297Y026589
X036297Y034594
X035303Y009597
X036307Y008594
X027303Y020595
X024303Y025589
X032299Y016598
X004297Y021595
X026305Y015598
X006303Y009597
X030300Y018592
X003298Y010597
X007307Y008594
X003299Y016598
X027301Y012599
X022308Y031593
X027302Y032593
X020306Y027591
X025300Y028591
X023309Y002592
X036303Y020595
X019297Y026589
X037299Y036591
X020303Y013599
X013297Y021595
X003302Y034608
X035305Y015598
X012298Y010597
X020301Y005592
X036301Y012599
X031308Y031593
X026310Y006594
X019300Y018592
X010300Y018592
X005314Y037610
X032309Y002592
X009306Y027591
X028297Y026589
X036302Y029591
X012302Y034608
X034294Y019592
X009303Y013599
X035310Y006594
X027304Y035592
X007302Y029591
X024299Y022594
X008309Y036610
X005308Y035609
X028300Y018592
X020300Y028591
X004307Y004592
X009301Y005592
X005294Y019592
X014314Y037610
X034307Y001587
X007306Y011599
X005304Y007594
X030305Y015598
X010303Y009597
X005307Y001587
X018303Y013599
X011307Y008594
X002303Y020595
X031301Y012599
X033299Y022594
X031302Y032593
X017309Y036610
X014308Y035609
X013307Y004592
X016306Y011599
X014304Y007594
X002301Y012599
X009300Y028591
X002302Y032593
X029307Y008594
X017303Y025589
X020307Y008594
X011303Y020595
X019305Y015598
X015308Y031593
X013306Y027591
X011301Y012599
X018300Y028591
X035297Y021595
X032297Y026589
X025309Y036592
X037303Y009597
X016309Y002592
X029303Y020595
X026303Y025589
X034299Y016598
X006297Y021595
X003297Y026589
X011302Y029591
X028305Y015598
X008303Y009597
X032300Y018592
X005298Y010597
X013301Y005592
X005299Y016598
X029301Y012599
X024308Y031593
X022306Y027591
X011306Y011599
X010310Y006594
X003300Y018592
X025309Y002592
X022303Y013599
X015297Y021595
X029302Y029591
X005302Y034608
X020302Y029591
X021309Y036610
X014298Y010597
X022301Y005592
X028310Y006594
X020306Y011599
X007314Y037610
X031303Y013599
X036294Y019592
X004307Y008594
X037310Y006594
X036304Y007594
X026299Y022594
X024302Y032593
X007308Y035609
X022300Y028591
X006307Y004592
X007294Y019592
X016314Y037610
X036307Y001587
X009306Y011599
X007304Y007594
X033303Y020595
X030303Y025589
X010297Y021595
X032305Y015598
X012303Y009597
X007307Y001587
X013307Y008594
X004303Y020595
X033301Y012599
X035299Y022594
X033302Y032593
X019309Y036610
X016308Y035609
X031300Y028591
X015307Y004592
X003305Y015598
X004301Y012599
X025297Y026589
X021303Y009597
X019303Y025589
X027299Y016598
X013303Y020595
X004302Y029591
X017308Y031593
X002294Y019592
X015306Y027591
X037297Y021595
X034297Y026589
X003310Y006594
X027309Y036592
X036298Y010597
X018309Y002592
X028303Y025589
X036299Y016598
X015303Y013599
X008297Y021595
X005297Y026589
X013302Y029591
X034300Y018592
X007298Y010597
X015301Y005592
X007299Y016598
X026308Y031593
X011294Y019592
X020314Y037610
X024306Y027591
X013306Y011599
X012310Y006594
X011304Y007594
X005300Y018592
X027309Y002592
X011307Y001587
X024303Y013599
X007302Y034608
X022302Y029591
X020308Y035609
X016298Y010597
X029294Y019592
X024301Y005592
X020294Y019592
X019299Y022594
X022306Y011599
X020304Y007594
X010299Y022594
X035297Y034594
X009314Y037610
X029307Y001587
X020307Y001587
X005303Y009597
X006307Y008594
X002299Y016598
X028299Y022594
X026302Y032593
X009308Y035609
X024300Y028591
X008307Y004592
X018314Y037610
X009304Y007594
X035303Y020595
X032303Y025589
X012297Y021595
X034305Y015598
X014303Y009597
X011298Y010597
X015307Y008594
X006303Y020595
X003303Y025589
X011299Y016598
X035301Y012599
X030308Y031593
X035302Y032593
X018308Y035609
X033300Y028591
X017307Y004592
X005305Y015598
X031309Y002592
X008306Y027591
X006301Y012599
X027297Y026589
X021297Y021595
X011302Y034608
X023303Y009597
X029299Y016598
X020298Y010597
X002309Y002592
X020299Y016598
X026304Y035592
X006302Y029591
X027300Y018592
X008301Y005592
X019308Y031593
X004294Y019592
X017306Y027591
X036297Y026589
X005310Y006594
X020302Y034608
X004307Y001587
X017303Y013599
X015302Y029591
X032299Y022594
X016309Y036610
X036300Y018592
X009298Y010597
X017301Y005592
X028308Y031593
X013294Y019592
X026306Y027591
X015306Y011599
X014310Y006594
X013304Y007594
X003299Y022594
X029309Y002592
X013307Y001587
X026303Y013599
X010303Y020595
X021307Y004592
X026301Y005592
X019302Y032593
X024306Y011599
X022304Y007594
X010301Y012599
X017300Y028591
X010302Y032593
X037297Y034594
X025303Y025589
X002297Y026589
X027305Y015598
X007303Y009597
X030307Y004592
X008307Y008594
X004299Y016598
X028301Y012599
X023308Y031593
X028302Y032593
X021306Y027591
X026300Y028591
X002300Y018592
X037303Y020595
X034303Y025589
X014297Y021595
X011297Y026589
X004302Y034608
X036305Y015598
X016303Y009597
X013298Y010597
X017307Y008594
X008303Y020595
X021301Y005592
X013299Y016598
X037301Y012599
X032308Y031593
X037302Y032593
X030306Y027591
X035300Y028591
X011300Y018592
X033309Y002592
X003308Y031593
X029297Y026589
X030303Y013599
X023297Y021595
X013302Y034608
X022298Y010597
X004309Y002592
X030301Y005592
X036310Y006594
X008302Y029591
X029300Y018592
X006294Y019592
X015314Y037610
X019306Y027591
X008306Y011599
X007310Y006594
X006304Y007594
X006307Y001587
X019303Y013599
X017302Y029591
X034299Y022594
X032302Y032593
X018309Y036610
X015308Y035609
X030300Y028591
X014307Y004592
X019301Y005592
X015294Y019592
X002305Y015598
X017306Y011599
X015304Y007594
X003301Y012599
X005299Y022594
X003302Y032593
X020303Y009597
X015307Y001587
X028303Y013599
X021307Y008594
X012303Y020595
X023307Y004592
X011305Y015598
X026306Y011599
X024304Y007594
X012301Y012599
X019300Y028591
X012302Y032593
X010300Y028591
X026309Y036592
X027303Y025589
X030307Y008594
X021303Y020595
X007297Y021595
X004297Y026589
X029305Y015598
X009303Y009597
X006299Y016598
X025308Y031593
X023306Y027591
X028300Y028591
X011310Y006594
X004300Y018592
X026309Y002592
X036303Y025589
X016297Y021595
X013297Y026589
X006302Y034608
X021302Y029591
X018303Y009597
X015298Y010597
X023301Y005592
X015299Y016598
X034308Y031593
X032306Y027591
X021306Y011599
X020310Y006594
X013300Y018592
X035309Y002592
X032303Y013599
X015302Y034608
X030302Y029591
X024298Y010597
X037294Y019592
X032301Y005592
X003303Y013599
X027299Y022594
X030306Y011599
X002309Y036610
X008294Y019592
X017314Y037610
X009310Y006594
X008304Y007594
X008307Y001587
X014307Y008594
X005303Y020595
X002303Y025589
X036299Y022594
X034302Y032593
X017308Y035609
X032300Y028591
X016307Y004592
X017294Y019592
X004305Y015598
X019306Y011599
X017304Y007594
X005301Y012599
X007299Y022594
X005302Y032593
X003300Y028591
X020297Y021595
X022303Y009597
X017307Y001587
X023307Y008594
X014303Y020595
X011303Y025589
X025307Y004592
X013305Y015598
X014301Y012599
X035297Y026589
X031303Y009597
X029303Y025589
X037299Y016598
X010309Y002592
X023303Y020595
X009297Y021595
X006297Y026589
X014302Y029591
X008298Y010597
X008299Y016598
X027308Y031593
X012294Y019592
X025306Y027591
X013310Y006594
X002299Y022594
X006300Y018592
X028309Y002592
X025303Y013599
X018297Y021595
X015297Y026589
X008302Y034608
X023302Y029591
X017298Y010597
X025301Y005592
X017299Y016598
X036308Y031593
X021294Y019592
X034306Y027591
X023306Y011599
X022310Y006594
X021304Y007594
X011299Y022594
X015300Y018592
X024304Y034593
X037309Y002592
X021307Y001587
X034303Y013599
X017302Y034608
X034301Y005592
X030294Y019592
X029299Y022594
X032306Y011599
X030304Y007594
X020299Y022594
X009307Y004592
X004309Y036610
X019314Y037610
X033303Y025589
X030307Y001587
X010297Y026589
X015303Y009597
X016307Y008594
X007303Y020595
X004303Y025589
X012299Y016598
X036302Y032593
X019308Y035609
X034300Y028591
X018307Y004592
X006305Y015598
X019304Y007594
X007301Y012599
X002308Y031593
X007302Y032593
X005300Y028591
X022297Y021595
X024303Y009597
X021298Y010597
X025307Y008594
X003309Y002592
X016303Y020595
X013303Y025589
X021299Y016598
X027307Y004592
X015305Y015598
X018306Y027591
X016301Y012599
X011308Y031593
X037297Y026589
X006310Y006594
X031297Y021595
X021302Y034608
X030298Y010597
X012309Y002592
X030299Y016598
X008297Y026589
X016302Y029591
X037300Y018592
X018301Y005592
X029308Y031593
X014294Y019592
X027306Y027591
X015310Y006594
X004299Y022594
X008300Y018592
X014307Y001587
X027303Y013599
X035299Y036591
X025302Y029591
X019298Y010597
X022307Y004592
X027301Y005592
X023294Y019592
X010305Y015598
X036306Y027591
X025306Y011599
X024310Y006594
X023304Y007594
X013299Y022594
X011302Y032593
X003314Y037610
X023307Y001587
X036303Y013599
X020303Y020595
X031307Y004592
X036301Y005592
X009307Y008594
X029302Y032593
X034306Y011599
X032304Y007594
X020301Y012599
X027300Y028591
X020302Y032593
X003308Y035609
X002307Y004592
X035303Y025589
X012297Y026589
X037305Y015598
X017303Y009597
X018307Y008594
X009303Y020595
X006303Y025589
X014299Y016598
X033308Y031593
X031306Y027591
X036300Y028591
X008305Y015598
X012300Y018592
X034309Y002592
X009301Y012599
X004308Y031593
X002306Y027591
X024297Y021595
X021297Y026589
X014302Y034608
X026303Y009597
X023298Y010597
X027307Y008594
X005309Y002592
X018303Y020595
X031301Y005592
X023299Y016598
X002303Y013599
X009302Y029591
X021300Y018592
X002301Y005592
X013308Y031593
X008310Y006594
X033297Y021595
X032298Y010597
X014309Y002592
X011303Y013599
X018302Y029591
X010309Y036610
X016294Y019592
X011301Y005592
X029306Y027591
X018306Y011599
X017310Y006594
X016304Y007594
X006299Y022594
X004302Y032593
X002300Y028591
X016307Y001587
X029303Y013599
X022307Y008594
X010303Y025589
X027302Y029591
X024307Y004592
X029301Y005592
X025294Y019592
X012305Y015598
X027306Y011599
X025304Y007594
X013301Y012599
X015299Y022594
X013302Y032593
X011300Y028591
X030303Y009597
X025307Y001587
X031307Y008594
X022303Y020595
X033307Y004592
X021305Y015598
X002307Y008594
X036306Y011599
X034304Y007594
X022301Y012599
X029300Y028591
X022302Y032593
X037303Y025589
X031303Y020595
X017297Y021595
X014297Y026589
X019303Y009597
X008303Y025589
X016299Y016598
X035308Y031593
X033306Y027591
X021310Y006594
X035296Y035594
X014300Y018592
X036309Y002592
X006308Y031593
X004306Y027591
X033303Y013599
X026297Y021595
X023297Y026589
X016302Y034608
X031302Y029591
X028303Y009597
X025298Y010597
X007309Y002592
X033301Y005592
X025299Y016598
X004303Y013599
X031306Y011599
X030310Y006594
X002302Y029591
X003309Y036610
X023300Y018592
X009294Y019592
X004301Y005592
X002306Y011599
X034298Y010597
X009307Y001587
X013303Y013599
X037299Y022594
X012309Y036610
X018294Y019592
X019310Y006594
X018304Y007594
X008299Y022594
X006302Y032593
X004300Y028591
X018307Y001587
X024307Y008594
X015303Y020595
X012303Y025589
X026307Y004592
X027294Y019592
X014305Y015598
X029306Y011599
X027304Y007594
X015301Y012599
X010308Y031593
X017299Y022594
X015302Y032593
X013300Y028591
X030297Y021595
X032303Y009597
X027307Y001587
X033307Y008594
X011309Y002592
X024303Y020595
X021303Y025589
X007297Y026589
X035307Y004592
X023305Y015598
X003303Y009597
X009299Y016598
X024301Y012599
X007300Y018592
X020309Y002592
X019297Y021595
X016297Y026589
X034299Y036591
X009302Y034608
X024302Y029591
X018298Y010597
X018299Y016598
X037308Y031593
X022294Y019592
X035306Y027591
X023310Y006594
X012299Y022594
X037296Y035594
X016300Y018592
X025304Y034593
X008308Y031593
X002314Y037610
X006306Y027591
X022307Y001587
X035303Y013599
X028297Y021595
X018302Y034608
X033302Y029591
X027298Y010597
X009309Y002592
X035301Y005592
X031294Y019592
X006303Y013599
X033306Y011599
X032310Y006594
X024304Y035592
X031304Y007594
X021299Y022594
X005309Y036610
X002308Y035609
X025300Y018592
X006301Y005592
X011314Y037610
X031307Y001587
X004306Y011599
X002304Y007594
X005303Y025589
X002307Y001587
X030299Y022594
X019307Y004592
X014309Y036610
X011308Y035609
X007305Y015598
X010307Y004592
X008301Y012599
X008302Y032593
X006300Y028591
X020297Y026589
X025303Y009597
X026307Y008594
X017303Y020595
X014303Y025589
X022299Y016598
X028307Y004592
X016305Y015598
X020300Y018592
X029304Y007594
X017301Y012599
X012308Y031593
X017302Y032593
X010306Y027591
X015300Y028591
X032297Y021595
X034303Y009597
X031298Y010597
X035307Y008594
X013309Y002592
X026303Y020595
X023303Y025589
X031299Y016598
X009297Y026589
X010303Y013599
X003297Y021595
X037307Y004592
X025305Y015598
X002298Y010597
X010301Y005592
X028306Y027591
X026301Y012599
X021308Y031593
X016310Y006594
X009300Y018592
X022309Y002592
X018297Y026589
X036299Y036591
X026302Y029591
X002302Y034608
X028301Y005592
X024294Y019592
T101
X030928Y036779
X029028Y035579
X030928Y034379
T00
M30
