; NON-PLATED HOLES START AT T1
; THROUGH (PLATED) HOLES START AT T100
M48
INCH
T1C0.086614
T100C0.038000
%
T1
X038518Y000950
X038516Y018835
X000864Y000956
X000865Y018827
T100
X004300Y004352
X021305Y001357
X014300Y014350
X035297Y007354
X015308Y017353
X036297Y012348
X002300Y004352
X008302Y015350
X029299Y008354
X012300Y014350
X033297Y007354
X014306Y013350
X013308Y017353
X034297Y012348
X009303Y006354
X006302Y015350
X027299Y008354
X030302Y015350
X010300Y014350
X014301Y010347
X012306Y013350
X032297Y012348
X007303Y006354
X004302Y015350
X029294Y005352
X008303Y011348
X031303Y006354
X012301Y010347
X010306Y013350
X030297Y012348
X005303Y006354
X002302Y015350
X027294Y005352
X006303Y011348
X036300Y009351
X010301Y010347
X003303Y006354
X004303Y011348
X034300Y009351
X036302Y018353
X018305Y001357
X002303Y011348
X032300Y009351
X034302Y018353
X016305Y001357
X036308Y017353
X023300Y004352
X030300Y009351
X009300Y014350
X033300Y014350
X032302Y018353
X014305Y001357
X034308Y017353
X021300Y004352
X007300Y014350
X009306Y013350
X029297Y012348
X031300Y014350
X012305Y001357
X032308Y017353
X025302Y015350
X005300Y014350
X009301Y010347
X007306Y013350
X027297Y012348
X010305Y001357
X030308Y017353
X005299Y002357
X026303Y006354
X023302Y015350
X007301Y010347
X005306Y013350
X025297Y012348
X003299Y002357
X024303Y006354
X021302Y015350
X005301Y010347
X003306Y013350
X023297Y012348
X037299Y002357
X029300Y009351
X022303Y006354
X003301Y010347
X035299Y002357
X027300Y009351
X020303Y006354
X021303Y011348
X029302Y018353
X018300Y004352
X025300Y009351
X013297Y007354
X028300Y014350
X027302Y018353
X009305Y001357
X029308Y017353
X016300Y004352
X033305Y001357
X011297Y007354
X026300Y014350
X007305Y001357
X027308Y017353
X014300Y004352
X031305Y001357
X005299Y008354
X024300Y014350
X005305Y001357
X025308Y017353
X012300Y004352
X003299Y008354
X018302Y015350
X022300Y014350
X024306Y013350
X023308Y017353
X010300Y004352
X005294Y005352
X019303Y006354
X016302Y015350
X037299Y008354
X020300Y014350
X024301Y010347
X022306Y013350
X003294Y005352
X017303Y006354
X014302Y015350
X035299Y008354
X018303Y011348
X022301Y010347
X020306Y013350
X015303Y006354
X012302Y015350
X037294Y005352
X016303Y011348
X020301Y010347
X013303Y006354
X008297Y007354
X014303Y011348
X010302Y018353
X028305Y001357
X006297Y007354
X012303Y011348
X009300Y004352
X026305Y001357
X033300Y004352
X004297Y007354
X010303Y011348
X019300Y014350
X007300Y004352
X024305Y001357
X031300Y004352
X002297Y007354
X003297Y012348
X017300Y014350
X019306Y013350
X018308Y017353
X005300Y004352
X022305Y001357
X035302Y015350
X015300Y014350
X019301Y010347
X017306Y013350
X037297Y012348
X020305Y001357
X015299Y002357
X009302Y015350
X036303Y006354
X033302Y015350
X017301Y010347
X015306Y013350
X035297Y012348
X013299Y002357
X034303Y006354
X031302Y015350
X015301Y010347
X007302Y018353
X013306Y013350
X033297Y012348
X011299Y002357
X003300Y009351
X009303Y011348
X032303Y006354
X013301Y010347
X005302Y018353
X011306Y013350
X007303Y011348
X037300Y009351
X030303Y006354
X011301Y010347
X003302Y018353
X031303Y011348
X028300Y004352
X005303Y011348
X035300Y009351
X037302Y018353
X019305Y001357
X026300Y004352
X003303Y011348
X021297Y007354
X036300Y014350
X017305Y001357
X037308Y017353
X024300Y004352
X015299Y008354
X034300Y014350
X015305Y001357
X035308Y017353
X022300Y004352
X013299Y008354
X028302Y015350
X032300Y014350
X034306Y013350
X033308Y017353
X008299Y002357
X020300Y004352
X015294Y005352
X011299Y008354
X029303Y006354
X026302Y015350
X008306Y013350
X030300Y014350
X034301Y010347
X032306Y013350
X031308Y017353
X006299Y002357
X013294Y005352
X027303Y006354
X024302Y015350
X008301Y010347
X006306Y013350
X032301Y010347
X030306Y013350
X004299Y002357
X011294Y005352
X025303Y006354
X022302Y015350
X026303Y011348
X030301Y010347
X002299Y002357
X023303Y006354
X018297Y007354
X024303Y011348
X020302Y018353
X016297Y007354
X022303Y011348
X019300Y004352
X036305Y001357
X014297Y007354
X020303Y011348
X029300Y014350
X017300Y004352
X034305Y001357
X008299Y008354
X012297Y007354
X013297Y012348
X027300Y014350
X029306Y013350
X028308Y017353
X015300Y004352
X032305Y001357
X006299Y008354
X010297Y007354
X011297Y012348
X025300Y014350
X029301Y010347
X027306Y013350
X030305Y001357
X008294Y005352
X004299Y008354
X025299Y002357
X019302Y015350
X027301Y010347
X025306Y013350
X006294Y005352
X002299Y008354
X023299Y002357
X017302Y015350
X025301Y010347
X023306Y013350
X004294Y005352
X021299Y002357
X013300Y009351
X019303Y011348
X023301Y010347
X015302Y018353
X021306Y013350
X002294Y005352
X011300Y009351
X017303Y011348
X021301Y010347
X013302Y018353
X009297Y007354
X015303Y011348
X011302Y018353
X029305Y001357
X036300Y004352
X007297Y007354
X013303Y011348
X008297Y012348
X031297Y007354
X011308Y017353
X027305Y001357
X034300Y004352
X025299Y008354
X005297Y007354
X006297Y012348
X025305Y001357
X032300Y004352
X023299Y008354
X004297Y012348
X018299Y002357
X030300Y004352
X025294Y005352
X021299Y008354
X002297Y012348
X036302Y015350
X018306Y013350
X016299Y002357
X008300Y009351
X023294Y005352
X037303Y006354
X034302Y015350
X018301Y010347
X016306Y013350
X014299Y002357
X006300Y009351
X021294Y005352
X035303Y006354
X032302Y015350
X016301Y010347
X008302Y018353
X036303Y011348
X012299Y002357
X004300Y009351
X033303Y006354
X006302Y018353
X028297Y007354
X034303Y011348
X008308Y017353
X030302Y018353
X010299Y002357
X002300Y009351
X004302Y018353
X026297Y007354
X032303Y011348
X006308Y017353
X029300Y004352
X003300Y014350
X002302Y018353
X024297Y007354
X030303Y011348
X004308Y017353
X027300Y004352
X018299Y008354
X022297Y007354
X002308Y017353
X037300Y014350
X025300Y004352
X016299Y008354
X020297Y007354
X021297Y012348
X035300Y014350
X037306Y013350
X018294Y005352
X014299Y008354
X029302Y015350
X037301Y010347
X035306Y013350
X009299Y002357
X016294Y005352
X012299Y008354
X033299Y002357
X027302Y015350
X035301Y010347
X033306Y013350
X007299Y002357
X014294Y005352
X010299Y008354
X031299Y002357
X023300Y009351
X028303Y006354
X029303Y011348
X033301Y010347
X025302Y018353
X031306Y013350
X012294Y005352
X021300Y009351
X027303Y011348
X031301Y010347
X023302Y018353
X010294Y005352
X019297Y007354
X025303Y011348
X021302Y018353
X003305Y001357
X017297Y007354
X023303Y011348
X018297Y012348
X021308Y017353
X037305Y001357
X015297Y007354
X016297Y012348
X035305Y001357
X009299Y008354
X033299Y008354
X014297Y012348
X007299Y008354
X028299Y002357
X010302Y015350
X035294Y005352
X031299Y008354
X012297Y012348
X028306Y013350
X009294Y005352
X026299Y002357
X018300Y009351
X011303Y006354
X033294Y005352
X010297Y012348
X028301Y010347
X026306Y013350
X007294Y005352
X024299Y002357
X016300Y009351
X031294Y005352
X026301Y010347
X018302Y018353
X022299Y002357
X014300Y009351
X016302Y018353
X020299Y002357
X012300Y009351
X014302Y018353
X036297Y007354
X016308Y017353
X003300Y004352
X010300Y009351
X013300Y014350
X012302Y018353
X034297Y007354
X014308Y017353
X037300Y004352
X007302Y015350
X028299Y008354
X009297Y012348
X011300Y014350
X032297Y007354
X012308Y017353
X035300Y004352
X008303Y006354
X005302Y015350
X026299Y008354
X007297Y012348
X030297Y007354
X010308Y017353
X031297Y012348
X006303Y006354
X003302Y015350
X028294Y005352
X024299Y008354
X005297Y012348
X019299Y002357
X004303Y006354
X026294Y005352
X022299Y008354
X037302Y015350
X017299Y002357
X009300Y009351
X002303Y006354
X024294Y005352
X020299Y008354
X033300Y009351
X035302Y018353
X007300Y009351
X022294Y005352
X031300Y009351
X009302Y018353
X037303Y011348
X033302Y018353
X005300Y009351
X020294Y005352
X008300Y014350
X029297Y007354
X035303Y011348
X009308Y017353
X031302Y018353
X013305Y001357
X006300Y014350
X027297Y007354
X033303Y011348
X007308Y017353
X028297Y012348
X011305Y001357
X004300Y014350
X025297Y007354
X005308Y017353
X026297Y012348
X019299Y008354
X002300Y014350
X023297Y007354
X006301Y010347
X004306Y013350
X003308Y017353
X024297Y012348
X017299Y008354
X020302Y015350
X004301Y010347
X002306Y013350
X022297Y012348
X019294Y005352
X036299Y002357
X028300Y009351
X021303Y006354
X002301Y010347
X020297Y012348
X036306Y013350
X017294Y005352
X034299Y002357
X026300Y009351
X036301Y010347
X028302Y018353
X032299Y002357
X024300Y009351
X026302Y018353
X008305Y001357
X030299Y002357
X022300Y009351
X028303Y011348
X024302Y018353
X006305Y001357
X026308Y017353
X013300Y004352
X020300Y009351
X023300Y014350
X022302Y018353
X004305Y001357
X024308Y017353
X011300Y004352
X019297Y012348
X021300Y014350
X002305Y001357
X022308Y017353
X018303Y006354
X015302Y015350
X036299Y008354
X017297Y012348
X020308Y017353
X016303Y006354
X013302Y015350
X034299Y008354
X015297Y012348
X029299Y002357
X014303Y006354
X011302Y015350
X036294Y005352
X032299Y008354
X027299Y002357
X019300Y009351
X012303Y006354
X034294Y005352
X030299Y008354
X017300Y009351
X010303Y006354
X032294Y005352
X011303Y011348
X019302Y018353
X008300Y004352
X015300Y009351
X030294Y005352
X003297Y007354
X018300Y014350
X017302Y018353
X019308Y017353
X006300Y004352
X023305Y001357
X016300Y014350
X037297Y007354
X017308Y017353
T00
M30
