G04 MADE WITH FRITZING*
G04 WWW.FRITZING.ORG*
G04 DOUBLE SIDED*
G04 HOLES PLATED*
G04 CONTOUR ON CENTER OF CONTOUR VECTOR*
%ASAXBY*%
%FSLAX23Y23*%
%MOIN*%
%OFA0B0*%
%SFA1.0B1.0*%
%ADD10C,0.096614*%
%ADD11C,0.088000*%
%LNMASK0*%
G90*
G70*
G54D10*
X86Y96D03*
X3852Y95D03*
X87Y1883D03*
X3852Y1884D03*
G54D11*
X3731Y1735D03*
X3631Y1735D03*
X3531Y1735D03*
X3431Y1735D03*
X3331Y1735D03*
X3231Y1735D03*
X3131Y1735D03*
X3031Y1735D03*
X2931Y1735D03*
X2831Y1735D03*
X2731Y1735D03*
X2631Y1735D03*
X2531Y1735D03*
X2431Y1735D03*
X2331Y1735D03*
X2231Y1735D03*
X2131Y1735D03*
X2031Y1735D03*
X1931Y1735D03*
X1831Y1735D03*
X1731Y1735D03*
X1631Y1735D03*
X1531Y1735D03*
X1431Y1735D03*
X1331Y1735D03*
X1231Y1735D03*
X1131Y1735D03*
X1031Y1735D03*
X931Y1735D03*
X831Y1735D03*
X731Y1735D03*
X631Y1735D03*
X531Y1735D03*
X431Y1735D03*
X331Y1735D03*
X231Y1735D03*
X3730Y1835D03*
X3630Y1835D03*
X3530Y1835D03*
X3430Y1835D03*
X3330Y1835D03*
X3230Y1835D03*
X3130Y1835D03*
X3030Y1835D03*
X2930Y1835D03*
X2830Y1835D03*
X2730Y1835D03*
X2630Y1835D03*
X2530Y1835D03*
X2430Y1835D03*
X2330Y1835D03*
X2230Y1835D03*
X2130Y1835D03*
X2030Y1835D03*
X1930Y1835D03*
X1830Y1835D03*
X1730Y1835D03*
X1630Y1835D03*
X1530Y1835D03*
X1430Y1835D03*
X1330Y1835D03*
X1230Y1835D03*
X1130Y1835D03*
X1030Y1835D03*
X930Y1835D03*
X830Y1835D03*
X730Y1835D03*
X630Y1835D03*
X530Y1835D03*
X430Y1835D03*
X330Y1835D03*
X230Y1835D03*
X3730Y1435D03*
X3630Y1435D03*
X3530Y1435D03*
X3430Y1435D03*
X3330Y1435D03*
X3230Y1435D03*
X3130Y1435D03*
X3030Y1435D03*
X2930Y1435D03*
X2830Y1435D03*
X2730Y1435D03*
X2630Y1435D03*
X2530Y1435D03*
X2430Y1435D03*
X2330Y1435D03*
X2230Y1435D03*
X2130Y1435D03*
X2030Y1435D03*
X1930Y1435D03*
X1830Y1435D03*
X1730Y1435D03*
X1630Y1435D03*
X1530Y1435D03*
X1430Y1435D03*
X1330Y1435D03*
X1230Y1435D03*
X1130Y1435D03*
X1030Y1435D03*
X930Y1435D03*
X830Y1435D03*
X730Y1435D03*
X630Y1435D03*
X530Y1435D03*
X430Y1435D03*
X330Y1435D03*
X230Y1435D03*
X3730Y1235D03*
X3630Y1235D03*
X3530Y1235D03*
X3430Y1235D03*
X3330Y1235D03*
X3230Y1235D03*
X3130Y1235D03*
X3030Y1235D03*
X2930Y1235D03*
X2830Y1235D03*
X2730Y1235D03*
X2630Y1235D03*
X2530Y1235D03*
X2430Y1235D03*
X2330Y1235D03*
X2230Y1235D03*
X2130Y1235D03*
X2030Y1235D03*
X1930Y1235D03*
X1830Y1235D03*
X1730Y1235D03*
X1630Y1235D03*
X1530Y1235D03*
X1430Y1235D03*
X1330Y1235D03*
X1230Y1235D03*
X1130Y1235D03*
X1030Y1235D03*
X930Y1235D03*
X830Y1235D03*
X730Y1235D03*
X630Y1235D03*
X530Y1235D03*
X430Y1235D03*
X330Y1235D03*
X230Y1235D03*
X3730Y1535D03*
X3630Y1535D03*
X3530Y1535D03*
X3430Y1535D03*
X3330Y1535D03*
X3230Y1535D03*
X3130Y1535D03*
X3030Y1535D03*
X2930Y1535D03*
X2830Y1535D03*
X2730Y1535D03*
X2630Y1535D03*
X2530Y1535D03*
X2430Y1535D03*
X2330Y1535D03*
X2230Y1535D03*
X2130Y1535D03*
X2030Y1535D03*
X1930Y1535D03*
X1830Y1535D03*
X1730Y1535D03*
X1630Y1535D03*
X1530Y1535D03*
X1430Y1535D03*
X1330Y1535D03*
X1230Y1535D03*
X1130Y1535D03*
X1030Y1535D03*
X930Y1535D03*
X830Y1535D03*
X730Y1535D03*
X630Y1535D03*
X530Y1535D03*
X430Y1535D03*
X330Y1535D03*
X230Y1535D03*
X3731Y1335D03*
X3631Y1335D03*
X3531Y1335D03*
X3431Y1335D03*
X3331Y1335D03*
X3231Y1335D03*
X3131Y1335D03*
X3031Y1335D03*
X2931Y1335D03*
X2831Y1335D03*
X2731Y1335D03*
X2631Y1335D03*
X2531Y1335D03*
X2431Y1335D03*
X2331Y1335D03*
X2231Y1335D03*
X2131Y1335D03*
X2031Y1335D03*
X1931Y1335D03*
X1831Y1335D03*
X1731Y1335D03*
X1631Y1335D03*
X1531Y1335D03*
X1431Y1335D03*
X1331Y1335D03*
X1231Y1335D03*
X1131Y1335D03*
X1031Y1335D03*
X931Y1335D03*
X831Y1335D03*
X731Y1335D03*
X631Y1335D03*
X531Y1335D03*
X431Y1335D03*
X331Y1335D03*
X231Y1335D03*
X3730Y1135D03*
X3630Y1135D03*
X3530Y1135D03*
X3430Y1135D03*
X3330Y1135D03*
X3230Y1135D03*
X3130Y1135D03*
X3030Y1135D03*
X2930Y1135D03*
X2830Y1135D03*
X2730Y1135D03*
X2630Y1135D03*
X2530Y1135D03*
X2430Y1135D03*
X2330Y1135D03*
X2230Y1135D03*
X2130Y1135D03*
X2030Y1135D03*
X1930Y1135D03*
X1830Y1135D03*
X1730Y1135D03*
X1630Y1135D03*
X1530Y1135D03*
X1430Y1135D03*
X1330Y1135D03*
X1230Y1135D03*
X1130Y1135D03*
X1030Y1135D03*
X930Y1135D03*
X830Y1135D03*
X730Y1135D03*
X630Y1135D03*
X530Y1135D03*
X430Y1135D03*
X330Y1135D03*
X230Y1135D03*
X3731Y136D03*
X3631Y136D03*
X3531Y136D03*
X3431Y136D03*
X3331Y136D03*
X3231Y136D03*
X3131Y136D03*
X3031Y136D03*
X2931Y136D03*
X2831Y136D03*
X2731Y136D03*
X2631Y136D03*
X2531Y136D03*
X2431Y136D03*
X2331Y136D03*
X2231Y136D03*
X2131Y136D03*
X2031Y136D03*
X1931Y136D03*
X1831Y136D03*
X1731Y136D03*
X1631Y136D03*
X1531Y136D03*
X1431Y136D03*
X1331Y136D03*
X1231Y136D03*
X1131Y136D03*
X1031Y136D03*
X931Y136D03*
X831Y136D03*
X731Y136D03*
X631Y136D03*
X531Y136D03*
X431Y136D03*
X331Y136D03*
X231Y136D03*
X3730Y236D03*
X3630Y236D03*
X3530Y236D03*
X3430Y236D03*
X3330Y236D03*
X3230Y236D03*
X3130Y236D03*
X3030Y236D03*
X2930Y236D03*
X2830Y236D03*
X2730Y236D03*
X2630Y236D03*
X2530Y236D03*
X2430Y236D03*
X2330Y236D03*
X2230Y236D03*
X2130Y236D03*
X2030Y236D03*
X1930Y236D03*
X1830Y236D03*
X1730Y236D03*
X1630Y236D03*
X1530Y236D03*
X1430Y236D03*
X1330Y236D03*
X1230Y236D03*
X1130Y236D03*
X1030Y236D03*
X930Y236D03*
X830Y236D03*
X730Y236D03*
X630Y236D03*
X530Y236D03*
X430Y236D03*
X330Y236D03*
X230Y236D03*
X3730Y635D03*
X3630Y635D03*
X3530Y635D03*
X3430Y635D03*
X3330Y635D03*
X3230Y635D03*
X3130Y635D03*
X3030Y635D03*
X2930Y635D03*
X2830Y635D03*
X2730Y635D03*
X2630Y635D03*
X2530Y635D03*
X2430Y635D03*
X2330Y635D03*
X2230Y635D03*
X2130Y635D03*
X2030Y635D03*
X1930Y635D03*
X1830Y635D03*
X1730Y635D03*
X1630Y635D03*
X1530Y635D03*
X1430Y635D03*
X1330Y635D03*
X1230Y635D03*
X1130Y635D03*
X1030Y635D03*
X930Y635D03*
X830Y635D03*
X730Y635D03*
X630Y635D03*
X530Y635D03*
X430Y635D03*
X330Y635D03*
X230Y635D03*
X3730Y435D03*
X3630Y435D03*
X3530Y435D03*
X3430Y435D03*
X3330Y435D03*
X3230Y435D03*
X3130Y435D03*
X3030Y435D03*
X2930Y435D03*
X2830Y435D03*
X2730Y435D03*
X2630Y435D03*
X2530Y435D03*
X2430Y435D03*
X2330Y435D03*
X2230Y435D03*
X2130Y435D03*
X2030Y435D03*
X1930Y435D03*
X1830Y435D03*
X1730Y435D03*
X1630Y435D03*
X1530Y435D03*
X1430Y435D03*
X1330Y435D03*
X1230Y435D03*
X1130Y435D03*
X1030Y435D03*
X930Y435D03*
X830Y435D03*
X730Y435D03*
X630Y435D03*
X530Y435D03*
X430Y435D03*
X330Y435D03*
X230Y435D03*
X3730Y735D03*
X3630Y735D03*
X3530Y735D03*
X3430Y735D03*
X3330Y735D03*
X3230Y735D03*
X3130Y735D03*
X3030Y735D03*
X2930Y735D03*
X2830Y735D03*
X2730Y735D03*
X2630Y735D03*
X2530Y735D03*
X2430Y735D03*
X2330Y735D03*
X2230Y735D03*
X2130Y735D03*
X2030Y735D03*
X1930Y735D03*
X1830Y735D03*
X1730Y735D03*
X1630Y735D03*
X1530Y735D03*
X1430Y735D03*
X1330Y735D03*
X1230Y735D03*
X1130Y735D03*
X1030Y735D03*
X930Y735D03*
X830Y735D03*
X730Y735D03*
X630Y735D03*
X530Y735D03*
X430Y735D03*
X330Y735D03*
X230Y735D03*
X3730Y835D03*
X3630Y835D03*
X3530Y835D03*
X3430Y835D03*
X3330Y835D03*
X3230Y835D03*
X3130Y835D03*
X3030Y835D03*
X2930Y835D03*
X2830Y835D03*
X2730Y835D03*
X2630Y835D03*
X2530Y835D03*
X2430Y835D03*
X2330Y835D03*
X2230Y835D03*
X2130Y835D03*
X2030Y835D03*
X1930Y835D03*
X1830Y835D03*
X1730Y835D03*
X1630Y835D03*
X1530Y835D03*
X1430Y835D03*
X1330Y835D03*
X1230Y835D03*
X1130Y835D03*
X1030Y835D03*
X930Y835D03*
X830Y835D03*
X730Y835D03*
X630Y835D03*
X530Y835D03*
X430Y835D03*
X330Y835D03*
X230Y835D03*
X3729Y535D03*
X3629Y535D03*
X3529Y535D03*
X3429Y535D03*
X3329Y535D03*
X3229Y535D03*
X3129Y535D03*
X3029Y535D03*
X2929Y535D03*
X2829Y535D03*
X2729Y535D03*
X2629Y535D03*
X2529Y535D03*
X2429Y535D03*
X2329Y535D03*
X2229Y535D03*
X2129Y535D03*
X2029Y535D03*
X1929Y535D03*
X1829Y535D03*
X1729Y535D03*
X1629Y535D03*
X1529Y535D03*
X1429Y535D03*
X1329Y535D03*
X1229Y535D03*
X1129Y535D03*
X1029Y535D03*
X929Y535D03*
X829Y535D03*
X729Y535D03*
X629Y535D03*
X529Y535D03*
X429Y535D03*
X329Y535D03*
X229Y535D03*
G04 End of Mask0*
M02*