G04 MADE WITH FRITZING*
G04 WWW.FRITZING.ORG*
G04 DOUBLE SIDED*
G04 HOLES PLATED*
G04 CONTOUR ON CENTER OF CONTOUR VECTOR*
%ASAXBY*%
%FSLAX23Y23*%
%MOIN*%
%OFA0B0*%
%SFA1.0B1.0*%
%ADD10C,0.078000*%
%ADD11C,0.048000*%
%LNCOPPER0*%
G90*
G70*
G54D10*
X3731Y1735D03*
X3631Y1735D03*
X3531Y1735D03*
X3431Y1735D03*
X3331Y1735D03*
X3231Y1735D03*
X3131Y1735D03*
X3031Y1735D03*
X2931Y1735D03*
X2831Y1735D03*
X2731Y1735D03*
X2631Y1735D03*
X2531Y1735D03*
X2431Y1735D03*
X2331Y1735D03*
X2231Y1735D03*
X2131Y1735D03*
X2031Y1735D03*
X1931Y1735D03*
X1831Y1735D03*
X1731Y1735D03*
X1631Y1735D03*
X1531Y1735D03*
X1431Y1735D03*
X1331Y1735D03*
X1231Y1735D03*
X1131Y1735D03*
X1031Y1735D03*
X931Y1735D03*
X831Y1735D03*
X731Y1735D03*
X631Y1735D03*
X531Y1735D03*
X431Y1735D03*
X331Y1735D03*
X231Y1735D03*
X3730Y1835D03*
X3630Y1835D03*
X3530Y1835D03*
X3430Y1835D03*
X3330Y1835D03*
X3230Y1835D03*
X3130Y1835D03*
X3030Y1835D03*
X2930Y1835D03*
X2830Y1835D03*
X2730Y1835D03*
X2630Y1835D03*
X2530Y1835D03*
X2430Y1835D03*
X2330Y1835D03*
X2230Y1835D03*
X2130Y1835D03*
X2030Y1835D03*
X1930Y1835D03*
X1830Y1835D03*
X1730Y1835D03*
X1630Y1835D03*
X1530Y1835D03*
X1430Y1835D03*
X1330Y1835D03*
X1230Y1835D03*
X1130Y1835D03*
X1030Y1835D03*
X930Y1835D03*
X830Y1835D03*
X730Y1835D03*
X630Y1835D03*
X530Y1835D03*
X430Y1835D03*
X330Y1835D03*
X230Y1835D03*
X3730Y1435D03*
X3630Y1435D03*
X3530Y1435D03*
X3430Y1435D03*
X3330Y1435D03*
X3230Y1435D03*
X3130Y1435D03*
X3030Y1435D03*
X2930Y1435D03*
X2830Y1435D03*
X2730Y1435D03*
X2630Y1435D03*
X2530Y1435D03*
X2430Y1435D03*
X2330Y1435D03*
X2230Y1435D03*
X2130Y1435D03*
X2030Y1435D03*
X1930Y1435D03*
X1830Y1435D03*
X1730Y1435D03*
X1630Y1435D03*
X1530Y1435D03*
X1430Y1435D03*
X1330Y1435D03*
X1230Y1435D03*
X1130Y1435D03*
X1030Y1435D03*
X930Y1435D03*
X830Y1435D03*
X730Y1435D03*
X630Y1435D03*
X530Y1435D03*
X430Y1435D03*
X330Y1435D03*
X230Y1435D03*
X3730Y1235D03*
X3630Y1235D03*
X3530Y1235D03*
X3430Y1235D03*
X3330Y1235D03*
X3230Y1235D03*
X3130Y1235D03*
X3030Y1235D03*
X2930Y1235D03*
X2830Y1235D03*
X2730Y1235D03*
X2630Y1235D03*
X2530Y1235D03*
X2430Y1235D03*
X2330Y1235D03*
X2230Y1235D03*
X2130Y1235D03*
X2030Y1235D03*
X1930Y1235D03*
X1830Y1235D03*
X1730Y1235D03*
X1630Y1235D03*
X1530Y1235D03*
X1430Y1235D03*
X1330Y1235D03*
X1230Y1235D03*
X1130Y1235D03*
X1030Y1235D03*
X930Y1235D03*
X830Y1235D03*
X730Y1235D03*
X630Y1235D03*
X530Y1235D03*
X430Y1235D03*
X330Y1235D03*
X230Y1235D03*
X3730Y1535D03*
X3630Y1535D03*
X3530Y1535D03*
X3430Y1535D03*
X3330Y1535D03*
X3230Y1535D03*
X3130Y1535D03*
X3030Y1535D03*
X2930Y1535D03*
X2830Y1535D03*
X2730Y1535D03*
X2630Y1535D03*
X2530Y1535D03*
X2430Y1535D03*
X2330Y1535D03*
X2230Y1535D03*
X2130Y1535D03*
X2030Y1535D03*
X1930Y1535D03*
X1830Y1535D03*
X1730Y1535D03*
X1630Y1535D03*
X1530Y1535D03*
X1430Y1535D03*
X1330Y1535D03*
X1230Y1535D03*
X1130Y1535D03*
X1030Y1535D03*
X930Y1535D03*
X830Y1535D03*
X730Y1535D03*
X630Y1535D03*
X530Y1535D03*
X430Y1535D03*
X330Y1535D03*
X230Y1535D03*
X3731Y1335D03*
X3631Y1335D03*
X3531Y1335D03*
X3431Y1335D03*
X3331Y1335D03*
X3231Y1335D03*
X3131Y1335D03*
X3031Y1335D03*
X2931Y1335D03*
X2831Y1335D03*
X2731Y1335D03*
X2631Y1335D03*
X2531Y1335D03*
X2431Y1335D03*
X2331Y1335D03*
X2231Y1335D03*
X2131Y1335D03*
X2031Y1335D03*
X1931Y1335D03*
X1831Y1335D03*
X1731Y1335D03*
X1631Y1335D03*
X1531Y1335D03*
X1431Y1335D03*
X1331Y1335D03*
X1231Y1335D03*
X1131Y1335D03*
X1031Y1335D03*
X931Y1335D03*
X831Y1335D03*
X731Y1335D03*
X631Y1335D03*
X531Y1335D03*
X431Y1335D03*
X331Y1335D03*
X231Y1335D03*
X3730Y1135D03*
X3630Y1135D03*
X3530Y1135D03*
X3430Y1135D03*
X3330Y1135D03*
X3230Y1135D03*
X3130Y1135D03*
X3030Y1135D03*
X2930Y1135D03*
X2830Y1135D03*
X2730Y1135D03*
X2630Y1135D03*
X2530Y1135D03*
X2430Y1135D03*
X2330Y1135D03*
X2230Y1135D03*
X2130Y1135D03*
X2030Y1135D03*
X1930Y1135D03*
X1830Y1135D03*
X1730Y1135D03*
X1630Y1135D03*
X1530Y1135D03*
X1430Y1135D03*
X1330Y1135D03*
X1230Y1135D03*
X1130Y1135D03*
X1030Y1135D03*
X930Y1135D03*
X830Y1135D03*
X730Y1135D03*
X630Y1135D03*
X530Y1135D03*
X430Y1135D03*
X330Y1135D03*
X230Y1135D03*
X3731Y136D03*
X3631Y136D03*
X3531Y136D03*
X3431Y136D03*
X3331Y136D03*
X3231Y136D03*
X3131Y136D03*
X3031Y136D03*
X2931Y136D03*
X2831Y136D03*
X2731Y136D03*
X2631Y136D03*
X2531Y136D03*
X2431Y136D03*
X2331Y136D03*
X2231Y136D03*
X2131Y136D03*
X2031Y136D03*
X1931Y136D03*
X1831Y136D03*
X1731Y136D03*
X1631Y136D03*
X1531Y136D03*
X1431Y136D03*
X1331Y136D03*
X1231Y136D03*
X1131Y136D03*
X1031Y136D03*
X931Y136D03*
X831Y136D03*
X731Y136D03*
X631Y136D03*
X531Y136D03*
X431Y136D03*
X331Y136D03*
X231Y136D03*
X3730Y236D03*
X3630Y236D03*
X3530Y236D03*
X3430Y236D03*
X3330Y236D03*
X3230Y236D03*
X3130Y236D03*
X3030Y236D03*
X2930Y236D03*
X2830Y236D03*
X2730Y236D03*
X2630Y236D03*
X2530Y236D03*
X2430Y236D03*
X2330Y236D03*
X2230Y236D03*
X2130Y236D03*
X2030Y236D03*
X1930Y236D03*
X1830Y236D03*
X1730Y236D03*
X1630Y236D03*
X1530Y236D03*
X1430Y236D03*
X1330Y236D03*
X1230Y236D03*
X1130Y236D03*
X1030Y236D03*
X930Y236D03*
X830Y236D03*
X730Y236D03*
X630Y236D03*
X530Y236D03*
X430Y236D03*
X330Y236D03*
X230Y236D03*
X3730Y635D03*
X3630Y635D03*
X3530Y635D03*
X3430Y635D03*
X3330Y635D03*
X3230Y635D03*
X3130Y635D03*
X3030Y635D03*
X2930Y635D03*
X2830Y635D03*
X2730Y635D03*
X2630Y635D03*
X2530Y635D03*
X2430Y635D03*
X2330Y635D03*
X2230Y635D03*
X2130Y635D03*
X2030Y635D03*
X1930Y635D03*
X1830Y635D03*
X1730Y635D03*
X1630Y635D03*
X1530Y635D03*
X1430Y635D03*
X1330Y635D03*
X1230Y635D03*
X1130Y635D03*
X1030Y635D03*
X930Y635D03*
X830Y635D03*
X730Y635D03*
X630Y635D03*
X530Y635D03*
X430Y635D03*
X330Y635D03*
X230Y635D03*
X3730Y435D03*
X3630Y435D03*
X3530Y435D03*
X3430Y435D03*
X3330Y435D03*
X3230Y435D03*
X3130Y435D03*
X3030Y435D03*
X2930Y435D03*
X2830Y435D03*
X2730Y435D03*
X2630Y435D03*
X2530Y435D03*
X2430Y435D03*
X2330Y435D03*
X2230Y435D03*
X2130Y435D03*
X2030Y435D03*
X1930Y435D03*
X1830Y435D03*
X1730Y435D03*
X1630Y435D03*
X1530Y435D03*
X1430Y435D03*
X1330Y435D03*
X1230Y435D03*
X1130Y435D03*
X1030Y435D03*
X930Y435D03*
X830Y435D03*
X730Y435D03*
X630Y435D03*
X530Y435D03*
X430Y435D03*
X330Y435D03*
X230Y435D03*
X3730Y735D03*
X3630Y735D03*
X3530Y735D03*
X3430Y735D03*
X3330Y735D03*
X3230Y735D03*
X3130Y735D03*
X3030Y735D03*
X2930Y735D03*
X2830Y735D03*
X2730Y735D03*
X2630Y735D03*
X2530Y735D03*
X2430Y735D03*
X2330Y735D03*
X2230Y735D03*
X2130Y735D03*
X2030Y735D03*
X1930Y735D03*
X1830Y735D03*
X1730Y735D03*
X1630Y735D03*
X1530Y735D03*
X1430Y735D03*
X1330Y735D03*
X1230Y735D03*
X1130Y735D03*
X1030Y735D03*
X930Y735D03*
X830Y735D03*
X730Y735D03*
X630Y735D03*
X530Y735D03*
X430Y735D03*
X330Y735D03*
X230Y735D03*
X3730Y835D03*
X3630Y835D03*
X3530Y835D03*
X3430Y835D03*
X3330Y835D03*
X3230Y835D03*
X3130Y835D03*
X3030Y835D03*
X2930Y835D03*
X2830Y835D03*
X2730Y835D03*
X2630Y835D03*
X2530Y835D03*
X2430Y835D03*
X2330Y835D03*
X2230Y835D03*
X2130Y835D03*
X2030Y835D03*
X1930Y835D03*
X1830Y835D03*
X1730Y835D03*
X1630Y835D03*
X1530Y835D03*
X1430Y835D03*
X1330Y835D03*
X1230Y835D03*
X1130Y835D03*
X1030Y835D03*
X930Y835D03*
X830Y835D03*
X730Y835D03*
X630Y835D03*
X530Y835D03*
X430Y835D03*
X330Y835D03*
X230Y835D03*
X3729Y535D03*
X3629Y535D03*
X3529Y535D03*
X3429Y535D03*
X3329Y535D03*
X3229Y535D03*
X3129Y535D03*
X3029Y535D03*
X2929Y535D03*
X2829Y535D03*
X2729Y535D03*
X2629Y535D03*
X2529Y535D03*
X2429Y535D03*
X2329Y535D03*
X2229Y535D03*
X2129Y535D03*
X2029Y535D03*
X1929Y535D03*
X1829Y535D03*
X1729Y535D03*
X1629Y535D03*
X1529Y535D03*
X1429Y535D03*
X1329Y535D03*
X1229Y535D03*
X1129Y535D03*
X1029Y535D03*
X929Y535D03*
X829Y535D03*
X729Y535D03*
X629Y535D03*
X529Y535D03*
X429Y535D03*
X329Y535D03*
X229Y535D03*
G54D11*
X272Y1835D02*
X289Y1835D01*
D02*
X372Y1835D02*
X389Y1835D01*
D02*
X472Y1835D02*
X489Y1835D01*
D02*
X572Y1835D02*
X589Y1835D01*
D02*
X672Y1835D02*
X689Y1835D01*
D02*
X772Y1835D02*
X789Y1835D01*
D02*
X872Y1835D02*
X889Y1835D01*
D02*
X972Y1835D02*
X989Y1835D01*
D02*
X1072Y1835D02*
X1089Y1835D01*
D02*
X1172Y1835D02*
X1189Y1835D01*
D02*
X1272Y1835D02*
X1289Y1835D01*
D02*
X1372Y1835D02*
X1389Y1835D01*
D02*
X1472Y1835D02*
X1489Y1835D01*
D02*
X1572Y1835D02*
X1589Y1835D01*
D02*
X1672Y1835D02*
X1689Y1835D01*
D02*
X1772Y1835D02*
X1789Y1835D01*
D02*
X1872Y1835D02*
X1889Y1835D01*
D02*
X1972Y1835D02*
X1989Y1835D01*
D02*
X2072Y1835D02*
X2089Y1835D01*
D02*
X2172Y1835D02*
X2189Y1835D01*
D02*
X2272Y1835D02*
X2289Y1835D01*
D02*
X2372Y1835D02*
X2389Y1835D01*
D02*
X2472Y1835D02*
X2489Y1835D01*
D02*
X2572Y1835D02*
X2589Y1835D01*
D02*
X2672Y1835D02*
X2689Y1835D01*
D02*
X2772Y1835D02*
X2789Y1835D01*
D02*
X2872Y1835D02*
X2889Y1835D01*
D02*
X2972Y1835D02*
X2989Y1835D01*
D02*
X3072Y1835D02*
X3089Y1835D01*
D02*
X3172Y1835D02*
X3189Y1835D01*
D02*
X3272Y1835D02*
X3289Y1835D01*
D02*
X3372Y1835D02*
X3389Y1835D01*
D02*
X3472Y1835D02*
X3489Y1835D01*
D02*
X3572Y1835D02*
X3589Y1835D01*
D02*
X3672Y1835D02*
X3689Y1835D01*
D02*
X272Y1735D02*
X290Y1735D01*
D02*
X372Y1735D02*
X390Y1735D01*
D02*
X472Y1735D02*
X490Y1735D01*
D02*
X572Y1735D02*
X590Y1735D01*
D02*
X672Y1735D02*
X690Y1735D01*
D02*
X772Y1735D02*
X790Y1735D01*
D02*
X872Y1735D02*
X890Y1735D01*
D02*
X972Y1735D02*
X990Y1735D01*
D02*
X1072Y1735D02*
X1090Y1735D01*
D02*
X1172Y1735D02*
X1190Y1735D01*
D02*
X1272Y1735D02*
X1290Y1735D01*
D02*
X1372Y1735D02*
X1390Y1735D01*
D02*
X1472Y1735D02*
X1490Y1735D01*
D02*
X1572Y1735D02*
X1590Y1735D01*
D02*
X1672Y1735D02*
X1690Y1735D01*
D02*
X1772Y1735D02*
X1790Y1735D01*
D02*
X1872Y1735D02*
X1890Y1735D01*
D02*
X1972Y1735D02*
X1990Y1735D01*
D02*
X2072Y1735D02*
X2090Y1735D01*
D02*
X2172Y1735D02*
X2190Y1735D01*
D02*
X2272Y1735D02*
X2290Y1735D01*
D02*
X2372Y1735D02*
X2390Y1735D01*
D02*
X2472Y1735D02*
X2490Y1735D01*
D02*
X2572Y1735D02*
X2590Y1735D01*
D02*
X2672Y1735D02*
X2690Y1735D01*
D02*
X2772Y1735D02*
X2790Y1735D01*
D02*
X2872Y1735D02*
X2890Y1735D01*
D02*
X2972Y1735D02*
X2990Y1735D01*
D02*
X3072Y1735D02*
X3090Y1735D01*
D02*
X3172Y1735D02*
X3190Y1735D01*
D02*
X3272Y1735D02*
X3290Y1735D01*
D02*
X3372Y1735D02*
X3390Y1735D01*
D02*
X3472Y1735D02*
X3490Y1735D01*
D02*
X3572Y1735D02*
X3590Y1735D01*
D02*
X3672Y1735D02*
X3690Y1735D01*
D02*
X230Y1176D02*
X230Y1194D01*
D02*
X230Y1276D02*
X230Y1294D01*
D02*
X230Y1376D02*
X230Y1394D01*
D02*
X230Y1476D02*
X230Y1494D01*
D02*
X330Y1176D02*
X330Y1194D01*
D02*
X330Y1276D02*
X330Y1294D01*
D02*
X330Y1376D02*
X330Y1394D01*
D02*
X330Y1476D02*
X330Y1494D01*
D02*
X430Y1176D02*
X430Y1194D01*
D02*
X430Y1276D02*
X430Y1294D01*
D02*
X430Y1376D02*
X430Y1394D01*
D02*
X430Y1476D02*
X430Y1494D01*
D02*
X530Y1176D02*
X530Y1194D01*
D02*
X530Y1276D02*
X530Y1294D01*
D02*
X530Y1376D02*
X530Y1394D01*
D02*
X530Y1476D02*
X530Y1494D01*
D02*
X630Y1176D02*
X630Y1194D01*
D02*
X630Y1276D02*
X630Y1294D01*
D02*
X630Y1376D02*
X630Y1394D01*
D02*
X630Y1476D02*
X630Y1494D01*
D02*
X730Y1176D02*
X730Y1194D01*
D02*
X730Y1276D02*
X730Y1294D01*
D02*
X730Y1376D02*
X730Y1394D01*
D02*
X730Y1476D02*
X730Y1494D01*
D02*
X830Y1176D02*
X830Y1194D01*
D02*
X830Y1276D02*
X830Y1294D01*
D02*
X830Y1376D02*
X830Y1394D01*
D02*
X830Y1476D02*
X830Y1494D01*
D02*
X930Y1176D02*
X930Y1194D01*
D02*
X930Y1276D02*
X930Y1294D01*
D02*
X930Y1376D02*
X930Y1394D01*
D02*
X930Y1476D02*
X930Y1494D01*
D02*
X1030Y1176D02*
X1030Y1194D01*
D02*
X1030Y1276D02*
X1030Y1294D01*
D02*
X1030Y1376D02*
X1030Y1394D01*
D02*
X1030Y1476D02*
X1030Y1494D01*
D02*
X1130Y1176D02*
X1130Y1194D01*
D02*
X1130Y1276D02*
X1130Y1294D01*
D02*
X1130Y1376D02*
X1130Y1394D01*
D02*
X1130Y1476D02*
X1130Y1494D01*
D02*
X1230Y1176D02*
X1230Y1194D01*
D02*
X1230Y1276D02*
X1230Y1294D01*
D02*
X1230Y1376D02*
X1230Y1394D01*
D02*
X1230Y1476D02*
X1230Y1494D01*
D02*
X1330Y1176D02*
X1330Y1194D01*
D02*
X1330Y1276D02*
X1330Y1294D01*
D02*
X1330Y1376D02*
X1330Y1394D01*
D02*
X1330Y1476D02*
X1330Y1494D01*
D02*
X1430Y1176D02*
X1430Y1194D01*
D02*
X1430Y1276D02*
X1430Y1294D01*
D02*
X1430Y1376D02*
X1430Y1394D01*
D02*
X1430Y1476D02*
X1430Y1494D01*
D02*
X1530Y1176D02*
X1530Y1194D01*
D02*
X1530Y1276D02*
X1530Y1294D01*
D02*
X1530Y1376D02*
X1530Y1394D01*
D02*
X1530Y1476D02*
X1530Y1494D01*
D02*
X1630Y1176D02*
X1630Y1194D01*
D02*
X1630Y1276D02*
X1630Y1294D01*
D02*
X1630Y1376D02*
X1630Y1394D01*
D02*
X1630Y1476D02*
X1630Y1494D01*
D02*
X1730Y1176D02*
X1730Y1194D01*
D02*
X1730Y1276D02*
X1730Y1294D01*
D02*
X1730Y1376D02*
X1730Y1394D01*
D02*
X1730Y1476D02*
X1730Y1494D01*
D02*
X1830Y1176D02*
X1830Y1194D01*
D02*
X1830Y1276D02*
X1830Y1294D01*
D02*
X1830Y1376D02*
X1830Y1394D01*
D02*
X1830Y1476D02*
X1830Y1494D01*
D02*
X1930Y1176D02*
X1930Y1194D01*
D02*
X1930Y1276D02*
X1930Y1294D01*
D02*
X1930Y1376D02*
X1930Y1394D01*
D02*
X1930Y1476D02*
X1930Y1494D01*
D02*
X2030Y1176D02*
X2030Y1194D01*
D02*
X2030Y1276D02*
X2030Y1294D01*
D02*
X2030Y1376D02*
X2030Y1394D01*
D02*
X2030Y1476D02*
X2030Y1494D01*
D02*
X2130Y1176D02*
X2130Y1194D01*
D02*
X2130Y1276D02*
X2130Y1294D01*
D02*
X2130Y1376D02*
X2130Y1394D01*
D02*
X2130Y1476D02*
X2130Y1494D01*
D02*
X2230Y1176D02*
X2230Y1194D01*
D02*
X2230Y1276D02*
X2230Y1294D01*
D02*
X2230Y1376D02*
X2230Y1394D01*
D02*
X2230Y1476D02*
X2230Y1494D01*
D02*
X2330Y1176D02*
X2330Y1194D01*
D02*
X2330Y1276D02*
X2330Y1294D01*
D02*
X2330Y1376D02*
X2330Y1394D01*
D02*
X2330Y1476D02*
X2330Y1494D01*
D02*
X2430Y1176D02*
X2430Y1194D01*
D02*
X2430Y1276D02*
X2430Y1294D01*
D02*
X2430Y1376D02*
X2430Y1394D01*
D02*
X2430Y1476D02*
X2430Y1494D01*
D02*
X2530Y1176D02*
X2530Y1194D01*
D02*
X2530Y1276D02*
X2530Y1294D01*
D02*
X2530Y1376D02*
X2530Y1394D01*
D02*
X2530Y1476D02*
X2530Y1494D01*
D02*
X2630Y1176D02*
X2630Y1194D01*
D02*
X2630Y1276D02*
X2630Y1294D01*
D02*
X2630Y1376D02*
X2630Y1394D01*
D02*
X2630Y1476D02*
X2630Y1494D01*
D02*
X2730Y1176D02*
X2730Y1194D01*
D02*
X2730Y1276D02*
X2730Y1294D01*
D02*
X2730Y1376D02*
X2730Y1394D01*
D02*
X2730Y1476D02*
X2730Y1494D01*
D02*
X2830Y1176D02*
X2830Y1194D01*
D02*
X2830Y1276D02*
X2830Y1294D01*
D02*
X2830Y1376D02*
X2830Y1394D01*
D02*
X2830Y1476D02*
X2830Y1494D01*
D02*
X2930Y1176D02*
X2930Y1194D01*
D02*
X2930Y1276D02*
X2930Y1294D01*
D02*
X2930Y1376D02*
X2930Y1394D01*
D02*
X2930Y1476D02*
X2930Y1494D01*
D02*
X3030Y1176D02*
X3030Y1194D01*
D02*
X3030Y1276D02*
X3030Y1294D01*
D02*
X3030Y1376D02*
X3030Y1394D01*
D02*
X3030Y1476D02*
X3030Y1494D01*
D02*
X3130Y1176D02*
X3130Y1194D01*
D02*
X3130Y1276D02*
X3130Y1294D01*
D02*
X3130Y1376D02*
X3130Y1394D01*
D02*
X3130Y1476D02*
X3130Y1494D01*
D02*
X3230Y1176D02*
X3230Y1194D01*
D02*
X3230Y1276D02*
X3230Y1294D01*
D02*
X3230Y1376D02*
X3230Y1394D01*
D02*
X3230Y1476D02*
X3230Y1494D01*
D02*
X3330Y1176D02*
X3330Y1194D01*
D02*
X3330Y1276D02*
X3330Y1294D01*
D02*
X3330Y1376D02*
X3330Y1394D01*
D02*
X3330Y1476D02*
X3330Y1494D01*
D02*
X3430Y1176D02*
X3430Y1194D01*
D02*
X3430Y1276D02*
X3430Y1294D01*
D02*
X3430Y1376D02*
X3430Y1394D01*
D02*
X3430Y1476D02*
X3430Y1494D01*
D02*
X3530Y1176D02*
X3530Y1194D01*
D02*
X3530Y1276D02*
X3530Y1294D01*
D02*
X3530Y1376D02*
X3530Y1394D01*
D02*
X3530Y1476D02*
X3530Y1494D01*
D02*
X3630Y1176D02*
X3630Y1194D01*
D02*
X3630Y1276D02*
X3630Y1294D01*
D02*
X3630Y1376D02*
X3630Y1394D01*
D02*
X3630Y1476D02*
X3630Y1494D01*
D02*
X3730Y1176D02*
X3730Y1194D01*
D02*
X3730Y1276D02*
X3730Y1294D01*
D02*
X3730Y1376D02*
X3730Y1394D01*
D02*
X3730Y1476D02*
X3730Y1494D01*
D02*
X271Y236D02*
X289Y236D01*
D02*
X371Y236D02*
X389Y236D01*
D02*
X471Y236D02*
X489Y236D01*
D02*
X571Y236D02*
X589Y236D01*
D02*
X671Y236D02*
X689Y236D01*
D02*
X771Y236D02*
X789Y236D01*
D02*
X871Y236D02*
X889Y236D01*
D02*
X971Y236D02*
X989Y236D01*
D02*
X1071Y236D02*
X1089Y236D01*
D02*
X1171Y236D02*
X1189Y236D01*
D02*
X1271Y236D02*
X1289Y236D01*
D02*
X1371Y236D02*
X1389Y236D01*
D02*
X1471Y236D02*
X1489Y236D01*
D02*
X1571Y236D02*
X1589Y236D01*
D02*
X1671Y236D02*
X1689Y236D01*
D02*
X1771Y236D02*
X1789Y236D01*
D02*
X1871Y236D02*
X1889Y236D01*
D02*
X1971Y236D02*
X1989Y236D01*
D02*
X2071Y236D02*
X2089Y236D01*
D02*
X2171Y236D02*
X2189Y236D01*
D02*
X2271Y236D02*
X2289Y236D01*
D02*
X2371Y236D02*
X2389Y236D01*
D02*
X2471Y236D02*
X2489Y236D01*
D02*
X2571Y236D02*
X2589Y236D01*
D02*
X2671Y236D02*
X2689Y236D01*
D02*
X2771Y236D02*
X2789Y236D01*
D02*
X2871Y236D02*
X2889Y236D01*
D02*
X2971Y236D02*
X2989Y236D01*
D02*
X3071Y236D02*
X3089Y236D01*
D02*
X3171Y236D02*
X3189Y236D01*
D02*
X3271Y236D02*
X3289Y236D01*
D02*
X3371Y236D02*
X3389Y236D01*
D02*
X3471Y236D02*
X3489Y236D01*
D02*
X3571Y236D02*
X3589Y236D01*
D02*
X3671Y236D02*
X3689Y236D01*
D02*
X272Y136D02*
X289Y136D01*
D02*
X372Y136D02*
X389Y136D01*
D02*
X472Y136D02*
X489Y136D01*
D02*
X572Y136D02*
X589Y136D01*
D02*
X672Y136D02*
X689Y136D01*
D02*
X772Y136D02*
X789Y136D01*
D02*
X872Y136D02*
X889Y136D01*
D02*
X972Y136D02*
X989Y136D01*
D02*
X1072Y136D02*
X1089Y136D01*
D02*
X1172Y136D02*
X1189Y136D01*
D02*
X1272Y136D02*
X1289Y136D01*
D02*
X1372Y136D02*
X1389Y136D01*
D02*
X1472Y136D02*
X1489Y136D01*
D02*
X1572Y136D02*
X1589Y136D01*
D02*
X1672Y136D02*
X1689Y136D01*
D02*
X1772Y136D02*
X1789Y136D01*
D02*
X1872Y136D02*
X1889Y136D01*
D02*
X1972Y136D02*
X1989Y136D01*
D02*
X2072Y136D02*
X2089Y136D01*
D02*
X2172Y136D02*
X2189Y136D01*
D02*
X2272Y136D02*
X2289Y136D01*
D02*
X2372Y136D02*
X2389Y136D01*
D02*
X2472Y136D02*
X2489Y136D01*
D02*
X2572Y136D02*
X2589Y136D01*
D02*
X2672Y136D02*
X2689Y136D01*
D02*
X2772Y136D02*
X2789Y136D01*
D02*
X2872Y136D02*
X2889Y136D01*
D02*
X2972Y136D02*
X2989Y136D01*
D02*
X3072Y136D02*
X3089Y136D01*
D02*
X3172Y136D02*
X3189Y136D01*
D02*
X3272Y136D02*
X3289Y136D01*
D02*
X3372Y136D02*
X3389Y136D01*
D02*
X3472Y136D02*
X3489Y136D01*
D02*
X3572Y136D02*
X3589Y136D01*
D02*
X3672Y136D02*
X3689Y136D01*
D02*
X230Y777D02*
X230Y794D01*
D02*
X230Y694D02*
X230Y677D01*
D02*
X230Y594D02*
X230Y576D01*
D02*
X230Y494D02*
X230Y476D01*
D02*
X330Y476D02*
X330Y494D01*
D02*
X330Y576D02*
X330Y594D01*
D02*
X330Y677D02*
X330Y694D01*
D02*
X330Y777D02*
X330Y794D01*
D02*
X430Y476D02*
X430Y494D01*
D02*
X430Y576D02*
X430Y594D01*
D02*
X430Y677D02*
X430Y694D01*
D02*
X430Y777D02*
X430Y794D01*
D02*
X530Y476D02*
X530Y494D01*
D02*
X530Y576D02*
X530Y594D01*
D02*
X530Y677D02*
X530Y694D01*
D02*
X530Y777D02*
X530Y794D01*
D02*
X630Y476D02*
X630Y494D01*
D02*
X630Y576D02*
X630Y594D01*
D02*
X630Y677D02*
X630Y694D01*
D02*
X630Y777D02*
X630Y794D01*
D02*
X730Y476D02*
X730Y494D01*
D02*
X730Y576D02*
X730Y594D01*
D02*
X730Y677D02*
X730Y694D01*
D02*
X730Y777D02*
X730Y794D01*
D02*
X830Y476D02*
X830Y494D01*
D02*
X830Y576D02*
X830Y594D01*
D02*
X830Y677D02*
X830Y694D01*
D02*
X830Y777D02*
X830Y794D01*
D02*
X930Y476D02*
X930Y494D01*
D02*
X930Y576D02*
X930Y594D01*
D02*
X930Y677D02*
X930Y694D01*
D02*
X930Y777D02*
X930Y794D01*
D02*
X1030Y476D02*
X1030Y494D01*
D02*
X1030Y576D02*
X1030Y594D01*
D02*
X1030Y677D02*
X1030Y694D01*
D02*
X1030Y777D02*
X1030Y794D01*
D02*
X1130Y476D02*
X1130Y494D01*
D02*
X1130Y576D02*
X1130Y594D01*
D02*
X1130Y677D02*
X1130Y694D01*
D02*
X1130Y777D02*
X1130Y794D01*
D02*
X1230Y476D02*
X1230Y494D01*
D02*
X1230Y576D02*
X1230Y594D01*
D02*
X1230Y677D02*
X1230Y694D01*
D02*
X1230Y777D02*
X1230Y794D01*
D02*
X1330Y476D02*
X1330Y494D01*
D02*
X1330Y576D02*
X1330Y594D01*
D02*
X1330Y677D02*
X1330Y694D01*
D02*
X1330Y777D02*
X1330Y794D01*
D02*
X1430Y476D02*
X1430Y494D01*
D02*
X1430Y576D02*
X1430Y594D01*
D02*
X1430Y677D02*
X1430Y694D01*
D02*
X1430Y777D02*
X1430Y794D01*
D02*
X1530Y476D02*
X1530Y494D01*
D02*
X1530Y576D02*
X1530Y594D01*
D02*
X1530Y677D02*
X1530Y694D01*
D02*
X1530Y777D02*
X1530Y794D01*
D02*
X1630Y476D02*
X1630Y494D01*
D02*
X1630Y576D02*
X1630Y594D01*
D02*
X1630Y677D02*
X1630Y694D01*
D02*
X1630Y777D02*
X1630Y794D01*
D02*
X1730Y476D02*
X1730Y494D01*
D02*
X1730Y576D02*
X1730Y594D01*
D02*
X1730Y677D02*
X1730Y694D01*
D02*
X1730Y777D02*
X1730Y794D01*
D02*
X1830Y476D02*
X1830Y494D01*
D02*
X1830Y576D02*
X1830Y594D01*
D02*
X1830Y677D02*
X1830Y694D01*
D02*
X1830Y777D02*
X1830Y794D01*
D02*
X1930Y476D02*
X1930Y494D01*
D02*
X1930Y576D02*
X1930Y594D01*
D02*
X1930Y677D02*
X1930Y694D01*
D02*
X1930Y777D02*
X1930Y794D01*
D02*
X2030Y476D02*
X2030Y494D01*
D02*
X2030Y576D02*
X2030Y594D01*
D02*
X2030Y677D02*
X2030Y694D01*
D02*
X2030Y777D02*
X2030Y794D01*
D02*
X2130Y476D02*
X2130Y494D01*
D02*
X2130Y576D02*
X2130Y594D01*
D02*
X2130Y677D02*
X2130Y694D01*
D02*
X2130Y777D02*
X2130Y794D01*
D02*
X2230Y476D02*
X2230Y494D01*
D02*
X2230Y576D02*
X2230Y594D01*
D02*
X2230Y677D02*
X2230Y694D01*
D02*
X2230Y777D02*
X2230Y794D01*
D02*
X2330Y476D02*
X2330Y494D01*
D02*
X2330Y576D02*
X2330Y594D01*
D02*
X2330Y677D02*
X2330Y694D01*
D02*
X2330Y777D02*
X2330Y794D01*
D02*
X2430Y476D02*
X2430Y494D01*
D02*
X2430Y576D02*
X2430Y594D01*
D02*
X2430Y677D02*
X2430Y694D01*
D02*
X2430Y777D02*
X2430Y794D01*
D02*
X2530Y476D02*
X2530Y494D01*
D02*
X2530Y576D02*
X2530Y594D01*
D02*
X2530Y677D02*
X2530Y694D01*
D02*
X2530Y777D02*
X2530Y794D01*
D02*
X2630Y476D02*
X2630Y494D01*
D02*
X2630Y576D02*
X2630Y594D01*
D02*
X2630Y677D02*
X2630Y694D01*
D02*
X2630Y777D02*
X2630Y794D01*
D02*
X2730Y476D02*
X2730Y494D01*
D02*
X2730Y576D02*
X2730Y594D01*
D02*
X2730Y677D02*
X2730Y694D01*
D02*
X2730Y777D02*
X2730Y794D01*
D02*
X2830Y476D02*
X2830Y494D01*
D02*
X2830Y576D02*
X2830Y594D01*
D02*
X2830Y677D02*
X2830Y694D01*
D02*
X2830Y777D02*
X2830Y794D01*
D02*
X2930Y476D02*
X2930Y494D01*
D02*
X2930Y576D02*
X2930Y594D01*
D02*
X2930Y677D02*
X2930Y694D01*
D02*
X2930Y777D02*
X2930Y794D01*
D02*
X3030Y476D02*
X3030Y494D01*
D02*
X3030Y576D02*
X3030Y594D01*
D02*
X3030Y677D02*
X3030Y694D01*
D02*
X3030Y777D02*
X3030Y794D01*
D02*
X3130Y476D02*
X3130Y494D01*
D02*
X3130Y576D02*
X3130Y594D01*
D02*
X3130Y677D02*
X3130Y694D01*
D02*
X3130Y777D02*
X3130Y794D01*
D02*
X3230Y476D02*
X3230Y494D01*
D02*
X3230Y576D02*
X3230Y594D01*
D02*
X3230Y677D02*
X3230Y694D01*
D02*
X3230Y777D02*
X3230Y794D01*
D02*
X3330Y476D02*
X3330Y494D01*
D02*
X3330Y576D02*
X3330Y594D01*
D02*
X3330Y677D02*
X3330Y694D01*
D02*
X3330Y777D02*
X3330Y794D01*
D02*
X3430Y476D02*
X3430Y494D01*
D02*
X3430Y576D02*
X3430Y594D01*
D02*
X3430Y677D02*
X3430Y694D01*
D02*
X3430Y777D02*
X3430Y794D01*
D02*
X3530Y476D02*
X3530Y494D01*
D02*
X3530Y576D02*
X3530Y594D01*
D02*
X3530Y677D02*
X3530Y694D01*
D02*
X3530Y777D02*
X3530Y794D01*
D02*
X3630Y476D02*
X3630Y494D01*
D02*
X3630Y576D02*
X3630Y594D01*
D02*
X3630Y677D02*
X3630Y694D01*
D02*
X3630Y777D02*
X3630Y794D01*
D02*
X3730Y476D02*
X3730Y494D01*
D02*
X3730Y576D02*
X3730Y594D01*
D02*
X3730Y677D02*
X3730Y694D01*
D02*
X3730Y777D02*
X3730Y794D01*
G04 End of Copper0*
M02*